<?xml version="1.0" encoding="UTF-8"?>
<svg id="Layer_1" data-name="Layer 1" xmlns="http://www.w3.org/2000/svg" viewBox="0 0 357.4 199.56">
  <defs>
    <style>
      .cls-1, .cls-2, .cls-3, .cls-4, .cls-5 {
        stroke-linecap: round;
      }

      .cls-1, .cls-2, .cls-6, .cls-7, .cls-4, .cls-8, .cls-9, .cls-10, .cls-11, .cls-12 {
        stroke: #000;
        stroke-width: .3px;
      }

      .cls-1, .cls-2, .cls-4 {
        stroke-linejoin: round;
      }

      .cls-1, .cls-6 {
        fill: #fea;
      }

      .cls-13 {
        fill: #f9f5e8;
      }

      .cls-13, .cls-14, .cls-15, .cls-16, .cls-17 {
        stroke-width: 0px;
      }

      .cls-2, .cls-3, .cls-11, .cls-5 {
        fill: none;
      }

      .cls-14 {
        fill: #fffbeb;
      }

      .cls-3 {
        stroke-width: .75px;
      }

      .cls-3, .cls-6, .cls-7, .cls-8, .cls-9, .cls-10, .cls-11, .cls-5, .cls-12 {
        stroke-miterlimit: 5;
      }

      .cls-3, .cls-5 {
        stroke: #9ed3f2;
      }

      .cls-7 {
        fill: #190e07;
      }

      .cls-4, .cls-12 {
        fill: #e1dbc4;
      }

      .cls-15 {
        fill: #f4eed7;
      }

      .cls-8 {
        fill: #28170b;
      }

      .cls-9 {
        fill: #c8b7b7;
      }

      .cls-10 {
        fill: #d8d0b2;
      }

      .cls-16 {
        fill: #fffdf4;
      }

      .cls-17 {
        fill: #fff;
      }

      .cls-5 {
        stroke-width: 1.8px;
      }
    </style>
  </defs>
  <g id="surface145">
    <path class="cls-15" d="M92.07,66.75s2.4.3,3.8.7c1.4.4,4.6,2.3,6.3,4.6,1.7,2.2,4.9,4,6.5,4.8s1.6,3.7,1.5,5.5-2.3,6.9-3.3,8.2c-1,1.3-4.9,12-7,14.8-2.1,2.9-9.9,17.4-11.8,19.9s-7.4,1.7-11,5.7-8.1,1.9-13.6,2.9c-4.4.8-8.8-.5-8.8-.5M4.47,99.85c-1.7-2.1-1.8-4.6,2.7-8.4,6.7-6.1,19.7-17.5,25.1-21.9s19.8-14.4,25.6-17.5c6.2-4.8,7.1-6.1,13.6-9.8,7.6-5.4,21.4-11.8,24.4-12.3s8.4-1.6,14.4-.4c6.1,1.3,17.3,1.4,19.5,1.5,2.3.1,14.2,4.4,22.2,5.4s25.8,9.2,35.7,9.8,24.5,10.6,30.5,12.6,21.7,13.7,25,15.5,14.7,6.3,19,7,8.6,1.5,11.5,1.5,5.5.6,10.6-1.2,3.8-1.2,7.7-2,4.1,1,4.5,2.4,2.1,4.7,1.6,6.7c-.5,2.1-1.1,4.5-1.3,6.3-.1,1.8-.9,2.7-.7,5s1.6,7.6.5,9.2-2.4,4.1-3.4,4.9-4.6,3-5.9,3.5-2.1,1.2-2.8,1.2-3.8-.4-6.2-.2c-2.5.1-10.1,1.3-13.5,2.6s-5.2,2.1-8.5,3.1c-3.3,1.1-3.5,1.8-8.4,3.5-4.9,1.8-11.9.6-16.4,2.2-4.5,1.6-13.2,3.5-16.5,5s-13,3-15,3.7c-2.1.7-18.8,4.2-21,4.8s-1.3.2-8.1.6c-6.8.4-8.1.1-10.5.6-2.4.6-6.7.1-8.7,0-2.1-.1-20.2-.8-25.6-1.9-5.3-1.1-5.5-1.5-11.3-1.3-5.9.1-22.8.4-25.3,0s-16-1.8-22.4-3.3-4.7-1.9-5.5-2.2c-.7-.3-3.9-2.1-7.7-3s-13.5-3.3-21.8-8.4c-8.4-5.1-13.9-7.8-17.5-10-3.5-2.2-15-10.7-14.4-12.4.6-1.8,2.2-3.8,3.2-3.7M20.87,84.65c-.7.5-1,1.1-1,1.1M16.07,88.25c.5,1,.7,1.5.7,1.4"/>
    <path class="cls-14" d="M32.27,124.75c2.4,1.1,3.7-2,5-3.8s3.8-7.3,1.3-8.9-7.8-3.5-10.5-4.2-1.8-.4-7.6-2.8c.1,0,.1-.1.2-.1h.3c21.1,1.3,16.3-5.6,24.8-9.2,15.5-6.6,18.5-32.1,50.7-33.1,23.8-.7,65.3,45.2,134.8,38.9,48.4-7.1,60.1-21.5,61-21.7,3.9-.8,4.1,1,4.5,2.4s2.1,4.7,1.6,6.7c-.5,2.1-1.1,4.5-1.3,6.3-.1,1.8-.9,2.7-.7,5s1.6,7.6.5,9.2-2.4,4.1-3.4,4.9-4.6,3-5.9,3.5-2.1,1.2-2.8,1.2-3.8-.4-6.2-.2c-2.5.1-10.1,1.3-13.5,2.6s-5.2,2.1-8.5,3.1c-3.3,1.1-3.5,1.8-8.4,3.5-4.9,1.8-11.9.6-16.4,2.2-4.5,1.6-13.2,3.5-16.5,5s-13,3-15,3.7c-2.1.7-18.8,4.2-21,4.8s-1.3.2-8.1.6c-6.8.4-8.1.1-10.5.6-2.4.6-6.7.1-8.7,0-2.1-.1-20.2-.8-25.6-1.9-5.3-1.1-5.5-1.5-11.3-1.3-5.9.1-22.8.4-25.3,0s-16-1.8-22.4-3.3-4.7-1.9-5.5-2.2c-.7-.3-3.9-2.1-7.7-3s-13.6-3.4-21.9-8.5"/>
    <path class="cls-6" d="M8.57,103.15c-1.2-.7-4-2.6-4.9-4.5-1-.1-2.6,1.9-3.2,3.7-.6,1.8,10.8,10.2,14.4,12.4,3.5,2.2,9.1,4.9,17.5,10,2.4,1.1,3.7-2,5-3.8s3.8-7.3,1.3-8.9-7.8-3.5-10.5-4.2-7.5-2.4-11.5-5.5c-3.7-3.7-9.8-9.9-11.8-8.3-1.9,2.5-1.5,4.3-.2,5.9,1.2,1.5,3.3,2.7,5,3.9.7.7,1.2,1,2.1,1.7.2.2,5,3.8,7.5,6.5,8.6,8.6,5.8,7.5,13.6,10.7"/>
    <path class="cls-5" d="M53.87,60.65c.6.3-.1.1.5.4M57.27,62.05c.8.3.7.3,1.4.6M61.47,64.25q.8.5,1.5,1.2M64.57,67.15c1,1.2,1,1.9,1.9,4,3.2,7.8,5.2,17.9,4.2,22.7-1,4.8,1.2,10.1,4,14.4,1.7,2.6,10.5,12.1,10.5,12.1M19.47,99.35c2.8.5,3.7.8,6,.2,2.3-.7,4.3-3.7,7.1-1s16.2,8.2,17.8,20.4c.5,2.6,1.1,4.2,1.9,5.4M53.87,125.85c1.1.7,2.5,1.1,4.4,1.7M23.07,82.25c-1.5,1.2-4,5.3-5.5,6.3s-2.8,3.3-3.7,3.2c-.8-.2-1-.2-1-.2M50.47,73.85c1.2.7,4.2,1.8,5.7,6.6,1.5,4.8.7,8.3-.8,11.1-1.5,2.8-3.7,6.5-6.3,7.6l-2.7,1.2"/>
    <path class="cls-9" d="M28.67,87.95c1.3,2.9,3.5,7.6,7.3,8.6s4.1,2.5,9.9.6c5.7-1.9,5.4-1.9,8-6s2.2-6.4,1.9-9.5c-.3-3.2-4.1-8-7.3-8.9-3.2-1-8-1.3-12.4-.3-4.5,1-5.1,3.8-6.1,5.4-.9,1.5-2.5,7.3-1.3,10.1Z"/>
    <path class="cls-7" d="M41.17,76.55c-3.5.3-5.1,0-6.7,2.2-1.6,2.2-2.5,10.4-.4,13.1,1.5,1,2.9,1.8,4.9,1.8s5.1-.2,6.5-.8c1.4-.6,3.3-.4,4.5-2s1.7-2.4,1.6-4.9c-.2-2.4-.2-4.1-1.3-5.6s-1.8-3.5-3.8-4c-2-.6-1.8-.1-5.3.2Z"/>
    <path class="cls-12" d="M157.57.15c-.9,0-2.4.8-3,1.1-1.3.6-3.3,1.6-4.7,2.3s-2.5,1.1-4.7,2.6c-2.1,1.5-5.5,4.5-7,5s-1,.5-1.3-.4c-.4-.8-.4-1.4,0-4.5.4-3-1-.8-3.3.4-2.3,1.3-2.5,2-4.6,4-2.1,2-3.3,2.3-4.7,2.7-1.5.4-2.1-.4-2.5-2.4-.1-.5.6-2.7-.1-2.4-2.1.8-7,6-8.4,7.6-1.8,2.2-4.3,2.8-4.5,2.5-.1-.4-.6-.6-.9-.6s-3,2.3-4,3c-1,.8-11,9.3-8.1,8.8,3-.5,8.4-1.6,14.4-.4,6.1,1.3,17.3,1.4,19.5,1.5,2.3.1,14.2,4.4,22.2,5.4s25.8,9.2,35.7,9.8c10,.7,24.6,10.7,30.6,12.7s21.7,13.7,25,15.5c2.3,1.3,8.5,3.8,13.5,5.5,2.2.7.2-1.2,1.2-1.7s5,0,6.9.1,7.4-.7,9.3-1.6c2-.8,1.1-6.4,1.2-8,0-.8.9-4.3.4-7.6-.4-3.1-2.2-6.1-2.3-6.9-.1-.8-1.6-4-3.5-7-2-3.1-4.4-5.9-4.8-6.6-.8-1.5-7.7-7.8-9-8.6-1.3-.8-9.6-6.5-10.9-7.1-1.3-.6-3.5-2.5-8.1-3.6-1.9-.5-3.8-1.4-5.9-1.9-2.8-.6-5.7-.7-6.9-.6-2.1.2-2.6,0-3.8-.1s-.8-.4-2.4-.1c-1.6.3-2.2.8-3.5,1.3s-1.8.3-3.2.4c-1.3.1-1.5-.9-2.1-1.3s-1.7-.1-4.2,0-1.7-.1-2.3-1.3c-.6-1.1-.8-2.1-.8-2.1,0,0-1.1-.2-2.5-.1-1.4.1-1.8-.4-2.7-1.1-.9-.7-.6-.8-1.6-2.5-.9-1.8-.3-.9-1.5-1.1-1.2-.1-1.6.1-4.3.1s-1.2-.5-2.1-1.5c-.8-1-.7-1.3-.7-1.3,0,0-1.3.4-2.4.6s-1.9.9-3.8.6c-1.5-.4-.7-1.4-.7-1.4l-.6-1.8s-2.3.8-3.5,1.3-2.4.7-3.1.5-.9-1.3-1.7-3.8-1.6-1.8-2.8-1.6c-1.2.3-1.6.6-2.8,1.1s-5.1,2-5.7,1.9c-.6-.1-1.6-.1-1.5-1.9.1-.8.8-2.9.1-3.3-.1-.1-.3-.1-.5-.1Z"/>
    <path class="cls-8" d="M239.37,71.85c-2.3-1.6,12.7-1.9,21.4-5.4,6.2-2.5,10.1-17.8,11.8-14.2,6.2,12.5,2.3,15.1,2.7,16.5.2,3,.2,4.7-.5,6.7-.3.7-.9,1.3-1.6,1.5-10.4,2.7-17.3-1.6-15.4,3l-18.4-8.1Z"/>
    <path class="cls-10" d="M185.87,41.75c.2-1.7,1.8-3.9,3-5.6,1.2-1.7,5.1-4.5,7.6-6.4s3-2.7,5.8-5.5c2.9-2.9,3.3-1.5,4-3.3-1.4.6-4.2,2.7-5.7,3.6-1.5,1-2.4,1.6-4.4,3.1-1.9,1.5-3.9,2.3-5.5,4-1.6,1.7-2.8,2-3.7,2.7-1,.6-4.7,3.9-6.3,5.2s-2.2,1.4-3.1.3c-.9-1.1.7-2.2,1.9-3.9s2.8-3.1,4.8-5.2,1.9-1.8,4.5-4.2c2.5-2.4,2.8-1.8,6.2-5,1-1.1,3-2.6,2.8-3-1.4.7-2.9,1.8-6,3.6-3.1,1.8-4.8,3.1-5.9,3.6-1.2.5-8.2,5.1-12.1,9.3-3.9,4.2-4.2.7-3.2-1.7,1.1-2.4,2.1-2.3,3.5-4.3s6.2-5.9,10.7-9.8c4.6-3.8,4.6-3.9,2.2-2.8-2.3,1.2-3.3,1.7-5.2,3s-4.4,2.5-6.8,4.9c-2.4,2.3,2.7-2.2-7.9,6.5-10.5,8.7-2.4.6-2.1-1.2.3-1.8,1.3-3.5,2.9-5.6,1.6-2.1,4.5-3.5,11.1-8.9,6.7-5.4,2.4-3,.5-2.2-1.9.7-2.8,1.9-5,3.2-2.2,1.3-4.6,3.4-6.5,4.8s-2.7,3-8.9,7.1c-6.3,4.1-6.1,2.1-5.2.1.9-2,2.2-2.9,4.7-5.9,2.4-3.1,5.1-4.7,9.8-8.3s4.1-5.1.6-1.9-2.6,1.6-4.8,3.2c-2.2,1.6-2.3,2.1-12.7,9s-6.3,1.6-5.8-1.3c.2-1.5,2.7-4.2,5.8-6.8,2.5-2,5.4-4.8,8.1-6.4.2-.1,1.7-.8,1.9-1,1.4-1.1,2.6-1.7,3.1-3.2-3.1,2.1-4.8,2.8-6.8,4.3s-3.9,2.5-5,2.9c-1.1.3-2.4,1.8-11.9,9.5-9.4,7.7-3.9.1-3.5-2.4s7.6-8.4,12.5-13.4-.5-1-2.8.6c-2.2,1.6-3.1,1.8-5.7,4-2.7,2.2-7.3,6-8.9,7.1-1.6,1.1-5.2,4.6-7.5,7.7-2.3,3.2-3.3,1.7-3.4,1.7s.1-2.2.4-3.4c.3-1.2,3.8-6.5,5.5-8.2s4.9-6.8,4.4-6-2.6,2.4-3.9,3.9c-1.4,1.5-9,8.4-10.3,9.6-1.3,1.3-2.6,3.7-4.1,4.4-1.6.7-1.4-.6-1.7-1.4-.3-.7,2.6-7.5,3.5-9.2,1-1.7,3.6-5.6,2.7-4.7-1,1-1.9,2.3-2.9,3.2-1,.8-1.3.7-3.5,4.9-2.2,4.1-4.6,6.7-5.7,6.8-1.2.1-2-.4-1.9-.8s.8-2.3,1.4-3.4c.5-1.1,2.8-4.2,2.5-4.7-.2-.4-3.2,3.4-4.7,5.6s-10.4,6.1-7.4,5.6,8.4-1.6,14.4-.4c6.1,1.3,17.3,1.4,19.5,1.5,2.3.1,14.2,4.4,22.2,5.4s25.8,9.2,35.7,9.8c.5.3-2-2.6-1.8-4.3Z"/>
    <path class="cls-8" d="M19.57,88.05c-1.5,1.9-1.2,2-2.3,3.3-1.4,1.2-3.1,1.9-2.5,3.5s1.2,2.1,4.2,2.9c3,.8,5.6.2,6.4,0,0,0,2.5-.6,2.5-2.5,0-.7.3-1.2-.2-2.5-1-2.8,2.4-5.1-.5-5.3-1.8-.5-2-1-3.3-1.7-1.7-.8-3.1.3-4.3,2.3Z"/>
    <path class="cls-8" d="M239.27,71.85c7,6.8,28.8,10.8,34.5,11.1,3,.1,5.5.6,10.6-1.2,3.3-1,3.8-1.2,7.7-2s4.1,1,4.5,2.4,2.1,4.7,1.6,6.7c-.5,2.1-1.1,4.5-1.3,6.3-.1,1.8,1.4,11.8-.2,14.2.2,2.3-1,2.9-3.4,4.9s-2.4,2-8.8,4.7c-25,.3-36.4,10.6-36.5,9-.3-2.2,5.5-16-5.2-25.5-2.2-2-3.8-4.6-4.4-7.5-1.6-8.5-2.9-19.7.9-23.1Z"/>
    <path class="cls-1" d="M117.57,141.65c-.3,0-1.1,0-2.5.1-2.2.1-5.9.1-9.8.2,3.9,5.2,1.2,1.6,3.2,9.9,0,0,2.8,9.6,3.3,12.2.6,2.5,5,12.5,5.8,13.8.9,1.3,3.8,4.2,4.7,5.9.8,1.6,2.2,3.7,3.6,5.9s1.4,3.2,3.8,5.6c2.3,2.4,3.5,4.1,4.1,4.1s.3.5,1.4-1.4c1.1-1.9,2.5-5.2,3.5-5.8s2.4-4,2.4-4l.9-2.7s1.1-1.1,1.7-3.7c.6-2.6.8-5.2,1.6-6.7s1.8-5.6,1.8-5.6c0,0,.9-4.4.1-6.1-.8-1.8-3.1-5.4-3.2-5.4s-2.4-2.7-6.7-4.9-7.8-5.5-9.5-5.8-5-1.8-5-1.9-2.1-.9-4.3-1.1c-1,0-2.2-1.2-2.2-1.2-.7-1.2,2.2-1.4,1.3-1.4Z"/>
    <path class="cls-1" d="M247.97,127.95c-4.9,1.8-11.9.6-16.4,2.2-4.5,1.6-13.2,3.5-16.5,5s-13,3-15,3.7c-2.1.7-18.8,4.2-21,4.8s-1.8,1.6-1.8,1.6c0,0,2.8,4.1,7.4,6.6,4.5,2.5,15.3,9,21.1,10.3s19.5,3.4,23.1,5.9c3.5,2.5,5.5,2.7,9.3,3.7s6.9,1.4,9.5.1c2.6-1.3,9.2-4.2,11.6-6.8,2.4-2.5,3.3-1.8,5.5-6.8,2.3-4.9,4-5.8,3.4-11.2s-.7-9.5-1.3-11.3c-.6-1.8-4.2-6.5-5.4-6.8-1.1-.3-10.5-.1-10.5-.1-2.4.7-2.2,0-3-.9Z"/>
    <path class="cls-13" d="M159.47,57.65c-1.1,0-2.1.1-3.2.3-5,1.1-20.1,6.8-23.8,9.4-3.7,2.7-7.5,7.8-9.1,10.5-1.6,2.6-6.6,8.3-8.8,10.8s-7.3,8.7-8.8,10.6-1.4,4.7-1.4,5.9c0,1.3-.1,2.4,1.2,5.9s2.2,6.9,3.8,7.1,4.5.4,8.7,0,14.7-1.5,17.1-1.8c2.4-.3,5.3.3,7.5-1.2s7.3-4.1,10.4-7.2c3.1-3.1,9.7-8.8,11.3-11.8s6.3-11.6,6.9-14.6,1.8-10.4,1.8-11.4-1.6-9.5-4.2-10.6c-2.2-.7-5.6-1.9-9.4-1.9Z"/>
    <path class="cls-16" d="M126.27,73.65c-1.3,1.6-2.3,3.1-3,4.2-1.6,2.6-6.6,8.3-8.8,10.8s-7.3,8.7-8.8,10.6-1.4,4.7-1.4,5.9c0,1.3-.1,2.4,1.2,5.9s2.2,6.9,3.8,7.1,4.5.4,8.7,0,14.7-1.5,17.1-1.8c2.4-.3,5.3.3,7.5-1.2s7.3-4.1,10.4-7.2c3.1-3.1,9.7-8.8,11.3-11.8.5-.9,1.2-2.3,2.1-3.8-15.5-5.5-28.8-12.8-40.1-18.7Z"/>
    <path class="cls-4" d="M356.17,57.15c-.8,0-2.3.3-5.4,1-5.5,1.3-14.7,4.8-19.8,6.9-5,2.1-9,3-13.9,5.1-4.1,1.3-8.9,3.5-13.3,4.8-3.2,1.7-15.6,5.5-11.8,4.7,3.9-.8,4.1,1,4.5,2.4s2.1,4.7,1.6,6.7c-.5,2.1-1.1,4.5-1.3,6.3-.1,1.8-.9,2.7-.7,5,.2,2.3,1.6,7.6.5,9.2s-2.4,4.1-3.4,4.9-4.6,3-5.9,3.5-2.1,1.2-2.8,1.2,8.2,1.8,9.9,2.5c1.7.8,13.6,5.8,16.9,6.7s18.6,6.5,20.2,6.6,15.6,4.2,16.8,4.2c1.2-.1,5.2-.1,5.2-.1l-.1-13.4s-2-10.4-3.1-12.5-3.5-9.3-4.4-10c-.8-.7-1.8-3.1-1.8-3.1,0,0,.6-1.5,1.5-2.8,1.7-2.2,2.6-6.3,3.5-8.6,2.2-4.1,4.1-10.2,4.6-12.4,0,0,3.2-11.7,3.2-11.8s.7-6.3.2-6.8c-.1,0-.3-.1-.9-.2Z"/>
    <path class="cls-17" d="M33.17,83.75c.4.5,1,.7,2.3.3,1.4-.4,1.8-1.2,4.4-1.3,2.5-.1,3.7-.1,4.9.1s1.9-.5,2.1,0c.2.5,1.9,1-.6,1.5s-3,1.8-4.9,1.8-2,.8-3.9.6c-1.9-.2-3.8.9-3.9,1.4-.1.5-2.3-.4-2.3-1.2,0-.8,1.5-3.8,1.9-3.2Z"/>
    <path class="cls-11" d="M92.07,66.75s2.4.3,3.8.7c1.4.4,4.6,2.3,6.3,4.6,1.7,2.2,4.9,4,6.5,4.8,1.6.7,1.6,3.7,1.5,5.5s-2.3,6.9-3.3,8.2c-1,1.3-4.9,12-7,14.8-2.1,2.9-9.9,17.4-11.8,19.9s-7.4,1.7-11,5.7-8.1,1.9-13.6,2.9c-4.4.8-8.8-.5-8.8-.5M4.47,99.85c-1.7-2.1-1.8-4.6,2.7-8.4,6.7-6.1,19.7-17.5,25.1-21.9s19.8-14.4,25.6-17.5c6.2-4.8,7.1-6.1,13.6-9.8,7.6-5.4,21.4-11.8,24.4-12.3s8.4-1.6,14.4-.4c6.1,1.3,17.3,1.4,19.5,1.5,2.3.1,14.2,4.4,22.2,5.4s25.8,9.2,35.7,9.8,24.5,10.6,30.5,12.6c4.6,1.5,15,8.8,21,13,1.8,1.2,3.2,2.2,4,2.6,2.5,1.4,9.3,4.1,14.4,5.8,1.8.6,3.5,1,4.6,1.2,4.3.7,8.6,1.5,11.5,1.5s5.5.6,10.6-1.2c5.1-1.8,3.8-1.2,7.7-2s4.1,1,4.5,2.4,2.1,4.7,1.6,6.7c-.5,2.1-1.1,4.5-1.3,6.3-.1,1.8-.9,2.7-.7,5,.2,2.3,1.6,7.6.5,9.2s-2.4,4.1-3.4,4.9-4.6,3-5.9,3.5-2.1,1.2-2.8,1.2-3.8-.4-6.2-.2c-2.5.1-10.1,1.3-13.5,2.6-3.4,1.3-5.2,2.1-8.5,3.1-3.3,1.1-3.5,1.8-8.4,3.5-4.9,1.8-11.9.6-16.4,2.2-4.5,1.6-13.2,3.5-16.5,5s-13,3-15,3.7c-2.1.7-18.8,4.2-21,4.8s-1.3.2-8.1.6c-6.8.4-8.1.1-10.5.6-2.4.6-6.7.1-8.7,0-2.1-.1-20.2-.8-25.6-1.9-5.3-1.1-5.5-1.5-11.3-1.3-5.9.1-22.8.4-25.3,0s-16-1.8-22.4-3.3-4.7-1.9-5.5-2.2c-.7-.3-3.9-2.1-7.7-3s-13.5-3.3-21.8-8.4c-8.4-5.1-13.9-7.8-17.5-10-3.5-2.2-15-10.7-14.4-12.4.6-1.8,2.2-3.8,3.2-3.7M20.87,84.65c-.7.5-1,1.1-1,1.1M16.07,88.25c.5,1,.7,1.5.7,1.4"/>
    <path class="cls-2" d="M159.47,57.65c-1.1,0-2.1.1-3.2.3-5,1.1-20.1,6.8-23.8,9.4-3.7,2.7-7.5,7.8-9.1,10.5-1.6,2.6-6.6,8.3-8.8,10.8-2.2,2.5-7.3,8.7-8.8,10.6s-1.4,4.7-1.4,5.9c0,1.3-.1,2.4,1.2,5.9s2.2,6.9,3.8,7.1c1.6.2,4.5.4,8.7,0,4.3-.4,14.7-1.5,17.1-1.8,2.4-.3,5.3.3,7.5-1.2s7.3-4.1,10.4-7.2c3.1-3.1,9.7-8.8,11.3-11.8s6.3-11.6,6.9-14.6c.6-3.1,1.8-10.4,1.8-11.4s-1.6-9.5-4.2-10.6c-2.2-.7-5.6-1.9-9.4-1.9Z"/>
  </g>
  <path class="cls-3" d="M110.17,35.65c3.2,7.8,5.2,17.9,4.2,22.7-1,4.8,1.2,10.1,4,14.4M122.17,39.15c2.2,5.3,3.5,12.1,2.8,15.4s.8,6.8,2.7,9.8M165.87,107.35c1.4,5.8,1.4,12.8-.1,15.8s-.6,6.9,1,10.3M178.67,93.45c.1,8.8-1.1,19.8-3,24.8-1.8,5-1.7,10.9-1,15.9M177.17,60.85c1.4,5.8,1.4,12.8-.1,15.8-1.6,3-.6,6.9,1,10.3M184.87,50.95c3.7,17.6,5.1,40.1,2.8,50.5-2.3,10.5.2,22.4,3.9,32.2M197.47,55.95c2.8,11.8,3,26.3-.2,32.4s-1.2,14.2,2.1,21.1M208.07,69.25c2.9,11.8,3,26.3-.1,32.4-3.2,6.1-1.2,14.2,2.1,21.1M219.67,70.35c.8,9.8.5,22.4-.9,28.2-1.3,5.8-.8,12.5.3,18M228.17,77.85c.5,6.8.2,15.4-.7,19.4s-.6,8.6.1,12.4M134.57,38.85c.8,3.9,1.2,8.9.9,11.3-.4,2.4.2,5,1,7.2"/>
</svg>